<?xml version="1.0" encoding="utf-8"?>
<!-- Generator: Adobe Illustrator 24.3.0, SVG Export Plug-In . SVG Version: 6.00 Build 0)  -->
<svg version="1.1" id="SketchValley" xmlns="http://www.w3.org/2000/svg" xmlns:xlink="http://www.w3.org/1999/xlink" x="0px"
	 y="0px" viewBox="0 0 1238.65 886.64" style="enable-background:new 0 0 1238.65 886.64;" xml:space="preserve">
<style type="text/css">
	.st0{fill:#1F0F45;}
	.st1{fill:#FFF0DF;}
	.st2{fill:#6B9AD1;}
	.st3{fill:#B4D1EE;}
	.st4{opacity:0.4;}
	.st5{opacity:0;}
	.st6{opacity:0.0476;}
	.st7{opacity:0.0952;}
	.st8{opacity:0.1429;}
	.st9{opacity:0.1905;}
	.st10{opacity:0.2381;}
	.st11{opacity:0.2857;}
	.st12{opacity:0.3333;}
	.st13{opacity:0.381;}
	.st14{opacity:0.4286;}
	.st15{opacity:0.4762;}
	.st16{opacity:0.5238;}
	.st17{opacity:0.5714;}
	.st18{opacity:0.619;}
	.st19{opacity:0.6667;}
	.st20{opacity:0.7143;}
	.st21{opacity:0.7619;}
	.st22{opacity:0.8095;}
	.st23{opacity:0.8571;}
	.st24{opacity:0.9048;}
	.st25{opacity:0.9524;}
	.st26{fill:#FFFFFF;}
	.st27{fill:#FFC549;}
	.st28{fill:#FFD88F;}
	.st29{fill:#FEC23C;}
	.st30{fill:#84B4E1;}
	.st31{fill:#32BAA0;}
	.st32{fill:#81B3E0;}
	.st33{fill:#AACDEC;}
	.st34{fill:#9DC5E9;}
	.st35{fill:#F8B6BF;}
	.st36{fill:#BE2026;}
	.st37{fill:#A85024;}
	.st38{fill:#EFA41F;}
	.st39{fill:#E08431;}
	.st40{fill:#491113;}
	.st41{fill:#811D18;}
	.st42{fill:#C66E28;}
	.st43{fill:#FFF7E0;}
	.st44{fill:#5CB17E;}
	.st45{fill:#F6DABC;}
	.st46{fill:#7D72AB;}
	.st47{fill:#9E4722;}
	.st48{fill:#C9812F;}
	.st49{fill:#D07E29;}
	.st50{fill:#F6B31F;}
	.st51{fill:none;stroke:#000000;stroke-miterlimit:10;}
	.st52{fill:#3D2B7F;}
	.st53{fill:#F04F51;}
	.st54{fill:#310F32;}
	.st55{fill:#FCBE4E;}
	.st56{fill:#F5909D;}
	.st57{fill:#300F31;}
	.st58{fill:none;stroke:#F5909D;stroke-linecap:round;stroke-linejoin:round;stroke-miterlimit:10;}
	.st59{fill:#FFD888;}
	.st60{fill:#FDE0B8;}
	.st61{fill:#A2C7EA;}
	.st62{fill:#042036;}
	.st63{fill:#F9AC94;}
	.st64{fill:#EA7D61;}
	.st65{clip-path:url(#SVGID_2_);fill:#F26722;}
	.st66{clip-path:url(#SVGID_4_);fill:#F9AC94;}
	.st67{fill:#8EB9E3;}
	.st68{fill:#151744;}
	.st69{fill:#F9B19B;}
	.st70{fill:#EC866C;}
	.st71{fill:none;stroke:#000000;stroke-linecap:round;stroke-miterlimit:10;}
	.st72{fill:none;stroke:#CA6855;stroke-linecap:round;stroke-miterlimit:10;}
	.st73{clip-path:url(#SVGID_6_);}
	.st74{fill:#FFCF69;}
	.st75{fill:#CA7A29;}
	.st76{fill:#F9AF9A;}
	.st77{fill:#E77F62;}
	.st78{fill:#CE6E58;}
	.st79{clip-path:url(#SVGID_8_);}
	.st80{fill:#3953A5;}
	.st81{fill:#EA9E8C;}
	.st82{fill:#6BA3D7;}
	.st83{fill:#2A347A;}
	.st84{fill:#2F3762;}
</style>
<g>
	<path class="st0" d="M858.87,866.49H320.59V215.46c0-41.1,33.32-74.42,74.42-74.42h389.44c41.1,0,74.42,33.32,74.42,74.42V866.49z"
		/>
	<path class="st1" d="M851.26,217.33v649.16H327.75V217.33c0-4.58,0.44-9.05,1.29-13.38c6.23-31.95,34.37-56.06,68.14-56.06h384.64
		c33.77,0,61.92,24.11,68.15,56.06C850.82,208.28,851.26,212.75,851.26,217.33z"/>
	<path class="st2" d="M849.97,203.95H329.04c6.23-31.95,34.37-56.06,68.14-56.06h384.64C815.59,147.89,843.74,172,849.97,203.95z"/>
	<circle class="st3" cx="492.34" cy="174.35" r="7.81"/>
	<circle class="st3" cx="686" cy="174.35" r="7.81"/>
	<path class="st3" d="M657.98,182.16H522.46c-4.31,0-7.81-3.5-7.81-7.81v0c0-4.31,3.5-7.81,7.81-7.81h135.52
		c4.31,0,7.81,3.5,7.81,7.81v0C665.79,178.66,662.29,182.16,657.98,182.16z"/>
	<g class="st4">
		<path class="st5" d="M876.68,539H423.25c-11.67,0-21.13-9.46-21.13-21.13V226.04c0-11.67,9.46-21.13,21.13-21.13h453.44
			c11.67,0,21.13,9.46,21.13,21.13v291.83C897.82,529.54,888.36,539,876.68,539z"/>
		<path class="st6" d="M873.85,537.09H426.08c-11.67,0-21.13-9.46-21.13-21.13V227.95c0-11.67,9.46-21.13,21.13-21.13h447.77
			c11.67,0,21.13,9.46,21.13,21.13v288.01C894.98,527.63,885.52,537.09,873.85,537.09z"/>
		<path class="st7" d="M871.02,535.18H428.91c-11.67,0-21.13-9.46-21.13-21.13V229.86c0-11.67,9.46-21.13,21.13-21.13h442.11
			c11.67,0,21.13,9.46,21.13,21.13v284.19C892.15,525.72,882.69,535.18,871.02,535.18z"/>
		<path class="st8" d="M868.19,533.28H431.74c-11.67,0-21.13-9.46-21.13-21.13V231.77c0-11.67,9.46-21.13,21.13-21.13h436.44
			c11.67,0,21.13,9.46,21.13,21.13v280.38C889.32,523.81,879.86,533.28,868.19,533.28z"/>
		<path class="st9" d="M865.35,531.37H434.58c-11.67,0-21.13-9.46-21.13-21.13V233.68c0-11.67,9.46-21.13,21.13-21.13h430.78
			c11.67,0,21.13,9.46,21.13,21.13v276.56C886.49,521.91,877.02,531.37,865.35,531.37z"/>
		<path class="st10" d="M862.52,529.46H437.41c-11.67,0-21.13-9.46-21.13-21.13V235.59c0-11.67,9.46-21.13,21.13-21.13h425.11
			c11.67,0,21.13,9.46,21.13,21.13v272.74C883.65,520,874.19,529.46,862.52,529.46z"/>
		<path class="st11" d="M859.69,527.55H440.24c-11.67,0-21.13-9.46-21.13-21.13V237.5c0-11.67,9.46-21.13,21.13-21.13h419.44
			c11.67,0,21.13,9.46,21.13,21.13v268.92C880.82,518.09,871.36,527.55,859.69,527.55z"/>
		<path class="st12" d="M856.85,525.64H443.08c-11.67,0-21.13-9.46-21.13-21.13v-265.1c0-11.67,9.46-21.13,21.13-21.13h413.78
			c11.67,0,21.13,9.46,21.13,21.13v265.1C877.99,516.18,868.53,525.64,856.85,525.64z"/>
		<path class="st13" d="M854.02,523.73H445.91c-11.67,0-21.13-9.46-21.13-21.13V241.31c0-11.67,9.46-21.13,21.13-21.13h408.11
			c11.67,0,21.13,9.46,21.13,21.13V502.6C875.15,514.27,865.69,523.73,854.02,523.73z"/>
		<path class="st14" d="M851.19,521.82H448.74c-11.67,0-21.13-9.46-21.13-21.13V243.22c0-11.67,9.46-21.13,21.13-21.13h402.45
			c11.67,0,21.13,9.46,21.13,21.13v257.46C872.32,512.36,862.86,521.82,851.19,521.82z"/>
		<path class="st15" d="M848.36,519.91H451.57c-11.67,0-21.13-9.46-21.13-21.13V245.13c0-11.67,9.46-21.13,21.13-21.13h396.78
			c11.67,0,21.13,9.46,21.13,21.13v253.65C869.49,510.45,860.03,519.91,848.36,519.91z"/>
		<path class="st16" d="M845.52,518H454.41c-11.67,0-21.13-9.46-21.13-21.13V247.04c0-11.67,9.46-21.13,21.13-21.13h391.12
			c11.67,0,21.13,9.46,21.13,21.13v249.83C866.66,508.54,857.19,518,845.52,518z"/>
		<path class="st17" d="M842.69,516.09H457.24c-11.67,0-21.13-9.46-21.13-21.13V248.95c0-11.67,9.46-21.13,21.13-21.13h385.45
			c11.67,0,21.13,9.46,21.13,21.13v246.01C863.82,506.63,854.36,516.09,842.69,516.09z"/>
		<path class="st18" d="M839.86,514.18H460.07c-11.67,0-21.13-9.46-21.13-21.13V250.86c0-11.67,9.46-21.13,21.13-21.13h379.78
			c11.67,0,21.13,9.46,21.13,21.13v242.19C860.99,504.72,851.53,514.18,839.86,514.18z"/>
		<path class="st19" d="M837.02,512.27H462.91c-11.67,0-21.13-9.46-21.13-21.13V252.77c0-11.67,9.46-21.13,21.13-21.13h374.12
			c11.67,0,21.13,9.46,21.13,21.13v238.37C858.16,502.81,848.7,512.27,837.02,512.27z"/>
		<path class="st20" d="M834.19,510.36H465.74c-11.67,0-21.13-9.46-21.13-21.13V254.68c0-11.67,9.46-21.13,21.13-21.13h368.45
			c11.67,0,21.13,9.46,21.13,21.13v234.55C855.32,500.9,845.86,510.36,834.19,510.36z"/>
		<path class="st21" d="M831.36,508.45H468.57c-11.67,0-21.13-9.46-21.13-21.13V256.59c0-11.67,9.46-21.13,21.13-21.13h362.79
			c11.67,0,21.13,9.46,21.13,21.13v230.73C852.49,498.99,843.03,508.45,831.36,508.45z"/>
		<path class="st22" d="M828.53,506.55H471.4c-11.67,0-21.13-9.46-21.13-21.13V258.5c0-11.67,9.46-21.13,21.13-21.13h357.12
			c11.67,0,21.13,9.46,21.13,21.13v226.92C849.66,497.08,840.2,506.55,828.53,506.55z"/>
		<path class="st23" d="M825.69,504.64H474.24c-11.67,0-21.13-9.46-21.13-21.13v-223.1c0-11.67,9.46-21.13,21.13-21.13h351.46
			c11.67,0,21.13,9.46,21.13,21.13v223.1C846.83,495.18,837.36,504.64,825.69,504.64z"/>
		<path class="st24" d="M822.86,502.73H477.07c-11.67,0-21.13-9.46-21.13-21.13V262.32c0-11.67,9.46-21.13,21.13-21.13h345.79
			c11.67,0,21.13,9.46,21.13,21.13V481.6C843.99,493.27,834.53,502.73,822.86,502.73z"/>
		<path class="st25" d="M820.03,500.82H479.9c-11.67,0-21.13-9.46-21.13-21.13V264.23c0-11.67,9.46-21.13,21.13-21.13h340.12
			c11.67,0,21.13,9.46,21.13,21.13v215.46C841.16,491.36,831.7,500.82,820.03,500.82z"/>
		<path d="M817.2,498.91H482.74c-11.67,0-21.13-9.46-21.13-21.13V266.14c0-11.67,9.46-21.13,21.13-21.13H817.2
			c11.67,0,21.13,9.46,21.13,21.13v211.64C838.33,489.45,828.87,498.91,817.2,498.91z"/>
	</g>
	<path class="st26" d="M863.77,524.28H434.3c-11.67,0-21.13-9.46-21.13-21.13V233.82c0-11.67,9.46-21.13,21.13-21.13h429.47
		c11.67,0,21.13,9.46,21.13,21.13v269.33C884.91,514.82,875.44,524.28,863.77,524.28z"/>
	<path class="st27" d="M843.18,503.76H448.53c-7,0-12.67-5.67-12.67-12.67V278.33c0-7,5.67-12.67,12.67-12.67h394.65
		c7,0,12.67,5.67,12.67,12.67v212.76C855.86,498.09,850.18,503.76,843.18,503.76z"/>
	<path class="st28" d="M630.3,397.96H482.25c-6.68,0-12.09-5.41-12.09-12.09v-71.79c0-6.68,5.41-12.09,12.09-12.09H630.3
		c6.68,0,12.09,5.41,12.09,12.09v71.79C642.39,392.55,636.97,397.96,630.3,397.96z"/>
	<path class="st28" d="M770.81,434.12h-94.43c-6.68,0-12.09-5.41-12.09-12.09v-45.02c0-6.68,5.41-12.09,12.09-12.09h94.43
		c6.68,0,12.09,5.41,12.09,12.09v45.02C782.9,428.71,777.49,434.12,770.81,434.12z"/>
	<circle class="st29" cx="441.3" cy="230.49" r="4.44"/>
	<circle class="st30" cx="454.46" cy="230.49" r="4.44"/>
	<circle class="st31" cx="467.76" cy="230.49" r="4.44"/>
	<path class="st2" d="M850.15,255.33H442.56c-3.15,0-5.71-2.55-5.71-5.71l0,0c0-3.15,2.55-5.71,5.71-5.71h407.59
		c3.15,0,5.71,2.55,5.71,5.71l0,0C855.86,252.78,853.3,255.33,850.15,255.33z"/>
	<path class="st32" d="M601.94,589h120.02c5.71,0,10.35,3.65,10.35,8.14v45.8c0,4.5-4.63,8.14-10.35,8.14h-12.44l-13.66,8.59
		c-0.89,0.56-2.2,0.06-2.2-0.83v-7.75h-91.72c-5.71,0-10.35-3.65-10.35-8.14v-45.8C591.59,592.64,596.23,589,601.94,589z"/>
	<path class="st26" d="M644.16,615.18h-31.3c-1.86,0-3.37-1.51-3.37-3.37l0,0c0-1.86,1.51-3.37,3.37-3.37h31.3
		c1.86,0,3.37,1.51,3.37,3.37l0,0C647.52,613.67,646.02,615.18,644.16,615.18z"/>
	<path class="st26" d="M704.69,631.19h-91.83c-1.86,0-3.37-1.51-3.37-3.37v0c0-1.86,1.51-3.37,3.37-3.37h91.83
		c1.86,0,3.37,1.51,3.37,3.37v0C708.06,629.68,706.55,631.19,704.69,631.19z"/>
	<path class="st33" d="M788.38,454.49H633.21c-7.39,0-13.38,5.99-13.38,13.38v75.22c0,7.39,5.99,13.38,13.38,13.38h16.09l17.66,14.1
		c1.15,0.91,2.84,0.1,2.84-1.37v-12.74h118.58c7.39,0,13.38-5.99,13.38-13.38v-75.22C801.76,460.48,795.77,454.49,788.38,454.49z"/>
	<path class="st26" d="M701.78,483.47h-52.56c-1.86,0-3.37-1.51-3.37-3.37l0,0c0-1.86,1.51-3.37,3.37-3.37h52.56
		c1.86,0,3.37,1.51,3.37,3.37l0,0C705.15,481.96,703.64,483.47,701.78,483.47z"/>
	<path class="st26" d="M770.27,500.78H649.23c-1.86,0-3.37-1.51-3.37-3.37l0,0c0-1.86,1.51-3.37,3.37-3.37h121.05
		c1.86,0,3.37,1.51,3.37,3.37l0,0C773.64,499.28,772.13,500.78,770.27,500.78z"/>
	<path class="st26" d="M770.27,518.1H649.23c-1.86,0-3.37-1.51-3.37-3.37l0,0c0-1.86,1.51-3.37,3.37-3.37h121.05
		c1.86,0,3.37,1.51,3.37,3.37l0,0C773.64,516.6,772.13,518.1,770.27,518.1z"/>
	<path class="st34" d="M705.52,533.39h124.03c5.9,0,10.69,4.92,10.69,11v61.83c0,6.07-4.79,11-10.69,11h-12.86l-14.12,11.59
		c-0.92,0.75-2.27,0.08-2.27-1.12v-10.47h-94.78c-5.9,0-10.69-4.92-10.69-11v-61.83C694.83,538.31,699.61,533.39,705.52,533.39z"/>
	<path class="st26" d="M743.06,561.53h-22.91c-1.86,0-3.37-1.51-3.37-3.37l0,0c0-1.86,1.51-3.37,3.37-3.37h22.91
		c1.86,0,3.37,1.51,3.37,3.37l0,0C746.43,560.02,744.92,561.53,743.06,561.53z"/>
	<path class="st26" d="M816.7,578.63h-96.54c-1.86,0-3.37-1.51-3.37-3.37l0,0c0-1.86,1.51-3.37,3.37-3.37h96.54
		c1.86,0,3.37,1.51,3.37,3.37l0,0C820.06,577.12,818.56,578.63,816.7,578.63z"/>
	<path class="st26" d="M817.89,595.73h-96.54c-1.86,0-3.37-1.51-3.37-3.37l0,0c0-1.86,1.51-3.37,3.37-3.37h96.54
		c1.86,0,3.37,1.51,3.37,3.37l0,0C821.26,594.22,819.75,595.73,817.89,595.73z"/>
	<path class="st35" d="M700.12,761.69l-54.64,47.87l-4.11-3.63l6.28-6.04c-7.97-0.97-8.7-10.88-9.42-14.43
		c-0.73-3.55-12.58-12.89-12.58-12.89l19.83-13.06c6.04,13.78,15.71,10.4,15.71,10.4l-1.69-3.15c0,0,26.11-8.7,33.37-9.67
		C700.12,756.13,700.12,761.69,700.12,761.69z"/>
	<path class="st36" d="M700.12,761.69l-54.64,47.87l-4.11-3.63l6.28-6.04l22.49-19.48l-8.95-10.5l-1.69-3.15
		c0,0,26.11-8.7,33.37-9.67C700.12,756.13,700.12,761.69,700.12,761.69z"/>
	<path class="st35" d="M622.95,862.89h-73.61v-3.84h8.53c-1.87-4.22-1.12-5.07,1.03-13.6c2.16-8.53-7.22-15.85-7.22-15.85
		l23.73-4.69c0,0,1.59,1.41,4.5,10.6c2.9,9.19,7.87,9,7.87,9v-3.37c0,0,31.6,14.44,35.17,16.97
		C626.51,860.64,622.95,862.89,622.95,862.89z"/>
	<path class="st36" d="M622.95,862.89h-73.61v-3.84h8.53l29.91-0.38v-17.53c0,0,31.6,14.44,35.17,16.97
		C626.51,860.64,622.95,862.89,622.95,862.89z"/>
	<polygon class="st37" points="711.41,866.6 732.79,866.6 750.4,811.77 729.02,811.77 	"/>
	<polygon class="st37" points="836.17,811.77 854.78,866.6 875.16,866.6 858.31,811.77 	"/>
	<polygon class="st37" points="916.66,810.26 935.53,866.6 955.9,866.6 938.8,810.26 	"/>
	<path class="st38" d="M954.73,722.13v91.44H684.94v-91.44c0-8.48,6.87-15.35,15.35-15.35h239.08
		C947.85,706.77,954.73,713.65,954.73,722.13z"/>
	<path class="st39" d="M954.73,720.75v92.81h-47.36c0.1-23.97,0.26-74.39-0.06-88.02c-0.25-10.33-5.2-15.9-9.39-18.77h42.83
		C948.47,706.77,954.73,713.03,954.73,720.75z"/>
	<path class="st40" d="M887.86,737.29v56.38H704.92v-56.38c0-5.27,4.42-9.54,9.86-9.54H878
		C883.44,727.75,887.86,732.02,887.86,737.29z"/>
	<path class="st41" d="M743.62,727.75c-2.57,1.95-5.45,5.26-5.45,10.28v55.64h-33.25v-56.38c0-5.27,4.42-9.54,9.86-9.54H743.62z"/>
	<path class="st42" d="M866.98,793.68h-76.39v-22.74h76.39c3.64,0,6.59,2.95,6.59,6.59v9.56
		C873.57,790.73,870.62,793.68,866.98,793.68z"/>
	<rect x="790.59" y="774.84" class="st43" width="75.76" height="14.66"/>
	<path class="st44" d="M867.09,752.25v11.91c0,2.54-2.07,4.61-4.62,4.61h-77.66v-21.13h77.66
		C865.02,747.64,867.09,749.7,867.09,752.25z"/>
	<rect x="784.81" y="751.52" class="st45" width="76.24" height="13.33"/>
	<path class="st46" d="M768.95,793.07h-55.26v-20.29h55.26c2.38,0,4.32,1.93,4.32,4.32v11.66
		C773.26,791.13,771.33,793.07,768.95,793.07z"/>
	<rect x="713.69" y="776.94" class="st43" width="53.58" height="12.56"/>
	<polygon class="st47" points="241.68,790.51 220.02,864.59 241.68,864.59 264.53,790.51 	"/>
	<polygon class="st47" points="323.03,793.66 302.94,866.81 323.82,866.81 346.07,791.49 	"/>
	<polygon class="st47" points="414.03,785.12 439.44,866.59 460.12,866.59 435.89,781.94 	"/>
	<polygon class="st47" points="494.59,793.07 517.63,866.81 538.11,866.81 515.46,791.49 	"/>
	<path class="st48" d="M270.83,790.9c0,0,23.44,10.64,53.97,6.3s102.82-11.74,102.82-11.74l-28.76-13.47L270.83,790.9z"/>
	<path class="st49" d="M542.84,792.59c0,0-74.87,9.54-91.43,11.88c-0.66,0.09-1.3,0.17-1.92,0.22
		c-15.19,1.39-21.94-7.47-28.85-17.31c-7.2-10.26-22.45-9.37-22.45-9.37s-86.02,10.32-139.35,16.51
		c-53.33,6.19-75.01-46.1-75.01-46.1s-78.45-188.9-80.96-195.45s-8.64-15.48-12.82-17.85c-4.19-2.37-21.51-5.23-15.34-23.41
		c1.9-5.59,6.89-7.28,10.55-7.74c2.4-0.3,4.23-0.08,4.23-0.08h64.4l315.9,178.84L542.84,792.59z"/>
	<path class="st50" d="M449.49,804.69c-15.19,1.39-21.94-7.47-28.85-17.31c-7.2-10.26-22.45-9.37-22.45-9.37
		s-86.02,10.32-139.35,16.51c-53.33,6.19-75.01-46.1-75.01-46.1s-78.45-188.9-80.96-195.45s-8.64-15.48-12.82-17.85
		c-4.19-2.37-21.51-5.23-15.34-23.41c1.9-5.59,6.89-7.28,10.55-7.74c7.77,1,17.46,3.88,24.91,11.42
		c14.73,14.93,24.89,40.33,31.8,59.54c6.91,19.2,60.82,146.32,60.82,146.32s11.35,53.34,61.85,44.54
		c50.51-8.79,118.32-15.32,118.32-15.32s44.25-2.65,61.18,19.06c8.52,10.93,11.64,14.88,12.63,16.11
		C457.53,787.47,462.43,800.38,449.49,804.69z"/>
	<path class="st51" d="M457.17,786.12c-0.03-0.03-0.15-0.17-0.4-0.48c-0.04-0.08-0.07-0.14-0.08-0.18
		C456.8,785.59,457.13,786.04,457.17,786.12z"/>
	<path class="st0" d="M586.61,821.71c0,0-25.82-92.56-26.49-102.95c-0.67-10.4-29.18-76.8-33.54-78.14
		c-4.36-1.34-45.27-12.07-67.74,4.69s-105.89,85.06-105.89,85.06l118.97-13.29l69.75,114.69
		C541.68,831.77,578.57,831.43,586.61,821.71z"/>
	<path class="st52" d="M214.74,658.81c0,0,6.67,104.89,138.21,71.56c0,0,28.77-9.82,69.11-45.95c40.34-36.13,88.4-62.79,109.1-25.61
		c20.7,37.18,31.92,76.12,31.92,76.12l55.78,47.01c0,0,26.66-13.33,35.78-33.68c0,0-124.53-153.65-150.84-159.26
		c-26.31-5.61-116.46-8.77-143.48,0C333.31,597.77,214.74,658.81,214.74,658.81z"/>
	<path class="st53" d="M395.18,452.23l-16.99,70.44l-10.4-2.4l-20.05-4.62l16.1,74.67l-147.42,74.97l-76.61-67.43
		c0,0-10.71-134.95,82.68-155.42l59.65-15.23C282.14,427.21,338.36,421.61,395.18,452.23z"/>
	<polygon class="st36" points="367.79,520.27 347.74,515.65 338.8,473.71 	"/>
	<polygon class="st36" points="221.88,539 213.2,590.02 211.14,610.62 207.33,633.14 238.97,622.53 	"/>
	<path class="st54" d="M195.08,350.78c-7,16.6,5.03,35.6,15.7,43.13s19.26,16.33,19.89,19.89s19.89-63.03,19.89-63.03
		s6.28-16.96-9.63-22.82c0,0,3.98,8.58-0.21,10.26C236.54,339.9,204.71,327.96,195.08,350.78z"/>
	<path class="st55" d="M268.66,421.3c0,0,14.7-0.83,20.94,10.54c6.24,11.37,9.29,28.57,9.29,28.57l-15.31-6.28L268.66,421.3z"/>
	<path class="st35" d="M230.68,437.26v-23.45l-2.3-20.94c-6.91,1.04-13.25-2.84-11.73-9.64c2.3-10.26,13.4-2.93,13.4-2.93
		c10.89,0,18.85-30.78,18.85-30.78c2.3,0.21,9.42,7.12,11.51,11.1c1.62,3.07,8.98,8.26,12.25,10.47c0.69,0.47,0.6,1.51-0.15,1.86
		l-2.26,1.07c15.5,30.78-6.07,31.62-6.07,31.62l3.53,8.83l19.5,48.75L230.68,437.26z"/>
	<path class="st56" d="M267.71,414.47c-0.42-0.05-13.54-1.76-23.53-13.91c0,0,6.87,5.02,20,5.08L267.71,414.47z"/>
	<circle class="st57" cx="255.37" cy="368.18" r="2.77"/>
	<path class="st26" d="M268.7,381.22c0,0-5.21,2.23-9.47,0.95c0,0,1.76,3.51,8.05,3.52C271.64,385.7,268.7,381.22,268.7,381.22z"/>
	<g>
		<path d="M245.32,369.18c-0.02,0-0.04,0-0.06,0c-0.27-0.03-0.47-0.28-0.44-0.55c0.03-0.24,0.81-5.92,11.06-7.32
			c0.27-0.04,0.53,0.15,0.56,0.43c0.04,0.27-0.15,0.53-0.43,0.56c-9.42,1.28-10.17,6.24-10.2,6.45
			C245.78,368.99,245.56,369.18,245.32,369.18z"/>
	</g>
	<path class="st35" d="M523.81,396.56l-41.52,101.06c0,0-14,38-44.4,34c-30.4-4-65.99-10.4-65.99-10.4l23.28-68.99l40.68,14.36
		l50.8-80.07c0,0-8.97-29.47,0.28-45.57c1.34-2.32,4.21-3.44,6.69-2.44c1.28,0.51,2.33,1.55,2.45,3.54
		c0.3,5.33-0.16,14.46-0.16,14.46l18.76-38.14c1.07-2.17,3.6-3.19,5.87-2.38c2.34,0.84,3.64,3.32,3,5.71l-5.54,20.73
		c0,0,11.03-3.48,9.43,9.72c0,0,8.13-0.58,6.97,13.21C534.41,365.36,546.89,379.43,523.81,396.56z"/>
	<polygon class="st56" points="424.65,486.32 427.46,472.84 395.18,452.23 435.86,466.59 	"/>
	<path class="st58" d="M502.28,379c0,0,1.94-16.7-6.86-20.58"/>
	<path class="st58" d="M513.57,350.72c0,0-2.22,11.16,2.01,11.78s11.86-10.35,11.86-10.35"/>
	<path class="st58" d="M520.85,364.93c0,0-2.29,14.07,4.57,9.91c6.86-4.16,8.98-9.48,8.98-9.48"/>
	<path class="st58" d="M525.77,377.75c0,0-0.21,10.46,5.96,8.52c6.17-1.94,5.43-15.48,5.43-15.48"/>
	<path class="st35" d="M367.79,601.76c0,0,0.1,7.5-9.28,5.23c0,0,3.16,7.4-8.09,5.62c0,0,1.48,6.12-5.23,5.63
		c-6.71-0.49-13.42-8.49-13.42-8.49s-9.67,12.63-27.53,9.28c0,0-75.13,47.24-110.34,54.06c-35.21,6.81-59.07,3.41-53.16-75.19
		l72.46-7.88l-1.01,10.07l-1.05,10.53L297.43,593c0,0,54.25-40.52,75.77,2.29C373.2,595.29,375.78,601.07,367.79,601.76z"/>
	<polygon class="st56" points="212.19,600.09 211.14,610.62 187.25,615.92 	"/>
	<path class="st58" d="M337.36,600.32c0,0,10.64,5.57,13.06,12.29"/>
	<path class="st58" d="M343.89,593.26c0,0,11.04,4.82,14.62,13.74"/>
	<path class="st58" d="M350.42,588.06c0,0,13.31,5.17,17.37,13.7"/>
	<polygon class="st59" points="211.62,443.75 232.14,429.51 283.57,454.13 278.42,474.95 	"/>
	<path class="st26" d="M521.6,551.31l-17.82,71.09c-0.99,3.95-4.54,6.72-8.61,6.72H306.44c0,0-3.13-1.78-1.37-7.81h68.53
		l17.94-73.32c0.75-3.09,3.52-5.26,6.69-5.26h116.68C519.4,542.73,522.69,546.95,521.6,551.31z"/>
	<path class="st60" d="M374.47,629.12h-68.03c0,0-3.13-1.78-1.37-7.81h68.53C373.6,621.31,369.08,625.66,374.47,629.12z"/>
	<circle class="st61" cx="1012.23" cy="165.63" r="87.73"/>
	<path class="st62" d="M1000.36,42.08c-13.29,9.16-0.62,19.77-0.62,19.77s-12.2,7.26-6.49,20.85c0,0-15.14,6.49-13.13,22.55
		s23.17,36.76,23.17,36.76l73.37,7.26c0,0,8.8-55.45-12.97-65.8c0,0-9.11-3.24-8.8-15.14c0.31-11.89-10.97-19.15-29.35-14.98
		C1025.54,53.36,1014.26,32.5,1000.36,42.08z"/>
	<path class="st63" d="M1035.42,97.83c0,0,2.94,32.44,5.1,37.38s-21.47,28.27-21.47,28.27l-34.44-19.46l20.23-14.21l0.51-5.88
		l0.88-10.19c0,0-11.74-3.86-11.58-15.13c0.15-11.28,6.49-35.99,6.49-35.99s12.35,7.57,19.46,0c0,0,2.47,12.51,15.91,7.57
		l-3.09,14.52c0,0,4.78-3.87,9.88-1.7C1048.4,85.17,1044.23,97.53,1035.42,97.83z"/>
	<path class="st64" d="M1027.14,105.04c-3.56,12.04-21.79,18.89-21.79,18.89l0.88-10.19
		C1021.3,114.74,1026.82,105.58,1027.14,105.04z"/>
	<g>
		<path class="st64" d="M1010.29,93.37C1010.29,93.37,1010.28,93.37,1010.29,93.37c-3.3-0.06-4.52-1.25-4.96-2.24
			c-0.7-1.56,0.03-3.7,2.04-6.02c3.27-3.77,0.68-9.19,0.65-9.24c-0.12-0.25-0.02-0.55,0.23-0.67c0.25-0.12,0.55-0.02,0.67,0.23
			c0.12,0.25,2.92,6.06-0.79,10.34c-1.72,1.98-2.41,3.79-1.88,4.96c0.46,1.03,1.9,1.61,4.06,1.65c0.28,0,0.5,0.23,0.49,0.51
			C1010.78,93.15,1010.56,93.37,1010.29,93.37z"/>
	</g>
	<ellipse transform="matrix(0.1115 -0.9938 0.9938 0.1115 826.1863 1081.3788)" cx="1017.84" cy="78.66" rx="2.68" ry="2.12"/>
	<ellipse transform="matrix(0.1115 -0.9938 0.9938 0.1115 815.6007 1064.1755)" cx="1002.92" cy="75.98" rx="2.45" ry="1.97"/>
	<path class="st26" d="M1002.93,96.25c-0.08-0.46,0.36-0.85,0.81-0.7c2.26,0.78,8,2.46,11.38,0.95c4.27-1.91-0.16,6.28-5.92,5.68
		C1005.99,101.84,1003.73,100.69,1002.93,96.25z"/>
	<g>
		<path d="M1024.85,75.13c-0.1,0-0.2-0.03-0.29-0.09c-4.61-3.22-9.26-1.3-9.31-1.28c-0.26,0.11-0.55-0.01-0.66-0.26
			c-0.11-0.25,0.01-0.55,0.26-0.66c0.21-0.09,5.19-2.17,10.27,1.38c0.23,0.16,0.28,0.47,0.12,0.7
			C1025.16,75.05,1025.01,75.13,1024.85,75.13z"/>
	</g>
	<g>
		<path d="M1007.51,73.8c-0.2,0-0.39-0.12-0.46-0.31c-1.31-3.28-5.83-2.81-5.88-2.81c-0.27,0.03-0.52-0.17-0.55-0.44
			c-0.03-0.27,0.17-0.52,0.44-0.55c0.22-0.03,5.33-0.56,6.92,3.43c0.1,0.26-0.02,0.55-0.28,0.65
			C1007.63,73.78,1007.57,73.8,1007.51,73.8z"/>
	</g>
	<path class="st63" d="M833.37,65.57c-0.64,2.31,4.42,35.82,19.34,41.71c0,0,28.33,97.4,51.64,97.62
		c23.31,0.22,38.86-6.54,38.86-6.54l-13.31-46.68l-13.8,5.57l-39.36-58.89c0,0,8.1-19.52,0.4-33.84c-1.58-2.37-6.42-2.47-5.73,4.64
		s0.48,9.78,0.48,9.78s-13.32-29.04-13.82-31.41c-0.49-2.37-7.8-2.27-6.62,3.85c0,0-2.86-5.63-5.83-3.65
		c-2.96,1.98-0.89,10.67-0.89,10.67s-2.86-6.32-5.63-3.65c-2.77,2.67-0.3,9.29-0.3,9.29S834.84,60.2,833.37,65.57z"/>
	<g>
		<path class="st64" d="M842.56,84.88c-0.14,0-0.29-0.06-0.38-0.18c-0.18-0.21-0.15-0.53,0.06-0.7c0.58-0.49,14.4-11.95,21.74-13.64
			c0.27-0.06,0.54,0.11,0.6,0.38c0.06,0.27-0.11,0.54-0.38,0.6c-7.11,1.63-21.19,13.31-21.33,13.43
			C842.79,84.84,842.67,84.88,842.56,84.88z"/>
	</g>
	<g>
		<path class="st64" d="M866.36,96.63c-0.23,0-0.44-0.16-0.49-0.4c-0.11-0.55-2.58-13.4,5.84-16.47c0.26-0.09,0.55,0.04,0.64,0.3
			c0.09,0.26-0.04,0.55-0.3,0.64c-7.62,2.78-5.23,15.21-5.2,15.34c0.05,0.27-0.12,0.53-0.39,0.59
			C866.43,96.63,866.4,96.63,866.36,96.63z"/>
	</g>
	<g>
		<path class="st64" d="M857.97,70.65c-0.21,0-0.4-0.13-0.47-0.33l-5.43-15.51c-0.09-0.26,0.05-0.55,0.31-0.64
			c0.26-0.09,0.55,0.05,0.64,0.31l5.43,15.51c0.09,0.26-0.05,0.55-0.31,0.64C858.08,70.64,858.02,70.65,857.97,70.65z"/>
	</g>
	<g>
		<path class="st64" d="M850.46,74.9c-0.21,0-0.4-0.13-0.47-0.33l-5.92-16.91c-0.09-0.26,0.05-0.55,0.31-0.64
			c0.26-0.09,0.55,0.05,0.64,0.31l5.92,16.91c0.09,0.26-0.05,0.55-0.31,0.64C850.57,74.89,850.52,74.9,850.46,74.9z"/>
	</g>
	<g>
		<path class="st64" d="M843.94,79.34c-0.21,0-0.4-0.13-0.47-0.34l-5.14-14.82c-0.09-0.26,0.05-0.55,0.31-0.64
			c0.26-0.09,0.54,0.05,0.64,0.31l5.14,14.82c0.09,0.26-0.05,0.55-0.31,0.64C844.05,79.33,844,79.34,843.94,79.34z"/>
	</g>
	<g>
		<defs>
			<circle id="SVGID_1_" cx="1012.23" cy="165.63" r="87.73"/>
		</defs>
		<clipPath id="SVGID_2_">
			<use xlink:href="#SVGID_1_"  style="overflow:visible;"/>
		</clipPath>
		<path class="st65" d="M928.23,152.51c0,0,49.61-25.39,75-21.58c0,0-7.2,16.48,5,18.33s31.26-17.96,31.26-17.96
			s29.44,7.77,41.02,22.28s20.08,35.68,20.08,35.68l-42.63,21.93l12.82,46.64H946.3l7.41-63.65l-12.51,4.96L928.23,152.51z"/>
	</g>
	<g>
		<defs>
			<circle id="SVGID_3_" cx="1012.23" cy="165.63" r="87.73"/>
		</defs>
		<clipPath id="SVGID_4_">
			<use xlink:href="#SVGID_3_"  style="overflow:visible;"/>
		</clipPath>
		<polygon class="st66" points="1052.62,195.08 1070.79,257.85 1118.06,239.55 1100.6,189.27 		"/>
	</g>
	<circle class="st67" cx="174.66" cy="202.85" r="112.97"/>
	<path class="st68" d="M119.94,95.7c-11.12,22.89,24.89,52.54,24.89,52.54s49.32-52.7,35.34-71.29s-42.56,13.06-42.56,13.06
		S125.17,84.94,119.94,95.7z"/>
	<path class="st69" d="M189.54,175.43l-13.52,23.82c0,0-41.33-20.75-37.79-26.43c3.53-5.68,2.92-42.87,2.92-42.87
		c-9.07,0.77-13.22-4.6-10.6-11.36c2.61-6.76,11.83,0,11.83,0v-17.06c34.1-2.3,36.72-9.37,36.72-9.37s2.15,10.14,7.68,32.42
		c5.53,22.28-11.99,23.66-11.99,23.66l0.35,10.84l0.27,8.36L189.54,175.43z"/>
	<path class="st70" d="M175.14,159.08c0,0-18.66-6.72-21.95-18.31c0,0,6.88,8.5,21.6,7.47L175.14,159.08z"/>
	<path class="st71" d="M152.66,111.18c0,0,3.01-4.67,12.57-1.51"/>
	<path class="st71" d="M172.39,107.33c0,0,1.14-4.99,7.38-2.81"/>
	<path class="st72" d="M170.94,109.2c0,0-1.35,7.58,2.81,10.18c4.16,2.6,6.03,5.61,2.81,6.13c-3.22,0.52-3.22,0.52-3.22,0.52"/>
	<path class="st26" d="M169.28,130.81c0,0,6.75,1.25,10.49-1.25c3.74-2.49,0.1,5.09-3.69,5.19
		C172.29,134.86,169.69,133.2,169.28,130.81z"/>
	<ellipse transform="matrix(0.9681 -0.2506 0.2506 0.9681 -23.4337 43.9082)" cx="160.72" cy="113.98" rx="1.78" ry="2.03"/>
	<ellipse transform="matrix(0.9858 -0.1677 0.1677 0.9858 -15.9174 31.2448)" cx="177.05" cy="109.87" rx="1.74" ry="2.03"/>
	<g>
		<defs>
			<circle id="SVGID_5_" cx="174.66" cy="202.85" r="112.97"/>
		</defs>
		<clipPath id="SVGID_6_">
			<use xlink:href="#SVGID_5_"  style="overflow:visible;"/>
		</clipPath>
		<g class="st73">
			<path class="st74" d="M63.77,235.29c0,0,20.61-63.69,76.05-68.64c0,0,11.68,26.76,36.61,20.39c3.79-1.49,8.52-8.32-1.02-19.6
				c0,0,56.96-6,112.22,58.95v77.73H63.77V235.29z"/>
		</g>
	</g>
	<path class="st69" d="M164.61,256.57l12.49,18.51c0,0,68.71-23.83,80.98-27.3c12.26-3.47,37.25-26.22,38.78-28.57
		s6.84,4.6-0.71,12.26c-7.54,7.66-2.71,8.72,9.31,3.06s26.4-13.2,26.4-13.2s4.6,2.36,0,8.6c0,0,2.95-0.71,4.12,1.53
		c1.18,2.24-4.36,9.07-4.36,9.07s2.95-0.59,4.01,1.89c1.06,2.47-4.71,8.25-4.71,8.25s2.59-0.59,2.59,2.12
		c0,2.71-26.59,20.27-56.9,20.03c0,0-79.17,59.66-113.54,60.79s-48.71-51.73-48.71-51.73L164.61,256.57z"/>
	<polygon class="st75" points="141.44,218.74 164.61,256.57 177.1,275.08 189.54,270.79 	"/>
	<path class="st75" d="M230.28,217.8l10.51,35.53l13.23-4.32C254.03,249.01,232.47,227.17,230.28,217.8z"/>
	<path class="st75" d="M81.48,229.76l32.88,52.14l7.13,18.29C121.49,300.19,88.06,272.18,81.48,229.76z"/>
	<circle class="st61" cx="1090.7" cy="511.19" r="117.93"/>
	<path class="st68" d="M1081.97,361.85c-21.47,7.41-14.52,24.89-14.52,24.89s-8.26,0.66-6.52,12.27c1.16,3.48,10.4,7.54,10.4,7.54
		l50.91,42.16c0,0,23.98-40.81,23.6-48.93c-0.39-8.12-9.48-11.99-9.48-11.99s2.13-9.28-8.9-8.9c0,0-5.8-15.67-22.24-8.7
		C1105.22,370.19,1096.05,356.99,1081.97,361.85z"/>
	<path class="st76" d="M1121.08,427.62c0,0,1.94,42.55,7.35,51.45c5.42,8.9-40.61,26.3-40.61,26.3s-22.44-23.21-1.74-33.84
		c0,0,0.57-2.54,1.07-5.96c0.66-4.53,1.19-10.6,0.09-14.35c0,0-0.76-0.04-1.98-0.4c-0.01-0.01-0.02-0.01-0.03-0.01
		c-4.4-1.34-14.58-7-15.79-30.73c-1.54-30.36,0-27.85,0-27.85s11.8,6.19,17.99-4.64c0,0,12.21,13.53,30.37,4.45
		c0,0-5.81,11.22-1.36,22.43c0,0,11.22-6.19,13.93,0C1133.07,420.66,1130.75,428.01,1121.08,427.62z"/>
	<path class="st77" d="M1113.59,438.95c-4.18,18.2-26.44,26.62-26.44,26.62c0.66-4.53,1.19-10.6,0.09-14.35
		C1106.28,455.54,1113.59,438.95,1113.59,438.95z"/>
	<circle cx="1074.34" cy="411.03" r="2.27"/>
	<circle cx="1098.1" cy="413.29" r="2.27"/>
	<path class="st26" d="M1081.78,430.37c-0.13-0.45,0.27-0.89,0.73-0.78c2.33,0.53,8.22,1.61,11.41-0.25
		c4.05-2.35,0.49,6.27-5.29,6.27C1085.41,435.61,1083.04,434.71,1081.78,430.37z"/>
	<g>
		<path class="st78" d="M1089.11,426.88c-1.69,0-5.6-0.2-6.49-2c-0.42-0.84-0.16-1.84,0.77-2.97c3.53-4.31,0.88-15.4,0.85-15.51
			l0.97-0.24c0.12,0.48,2.8,11.69-1.05,16.38c-0.66,0.8-0.88,1.44-0.65,1.89c0.6,1.21,4.17,1.52,6.29,1.43l0.04,1
			C1089.73,426.87,1089.47,426.88,1089.11,426.88z"/>
	</g>
	<g>
		<path d="M1073.19,420.86c-6.11,0-11.08-4.97-11.08-11.08s4.97-11.08,11.08-11.08s11.08,4.97,11.08,11.08
			S1079.3,420.86,1073.19,420.86z M1073.19,399.7c-5.56,0-10.08,4.52-10.08,10.08s4.52,10.08,10.08,10.08s10.08-4.52,10.08-10.08
			S1078.75,399.7,1073.19,399.7z"/>
	</g>
	<g>
		<path d="M1099.21,422.73c-6.11,0-11.08-4.97-11.08-11.08s4.97-11.08,11.08-11.08s11.08,4.97,11.08,11.08
			S1105.32,422.73,1099.21,422.73z M1099.21,401.57c-5.56,0-10.08,4.52-10.08,10.08s4.52,10.08,10.08,10.08
			c5.56,0,10.08-4.52,10.08-10.08S1104.77,401.57,1099.21,401.57z"/>
	</g>
	<g>
		<rect x="1083.77" y="410.53" width="4.86" height="1"/>
	</g>
	<g>
		<rect x="1115.32" y="405.94" transform="matrix(0.0541 -0.9985 0.9985 0.0541 644.1047 1503.8807)" width="1" height="12.07"/>
	</g>
	<g>
		<defs>
			<circle id="SVGID_7_" cx="1090.7" cy="511.19" r="117.93"/>
		</defs>
		<clipPath id="SVGID_8_">
			<use xlink:href="#SVGID_7_"  style="overflow:visible;"/>
		</clipPath>
		<g class="st79">
			<path class="st80" d="M1006.3,520.17c0,0,33.5-51.4,79.78-48.64c0,0-13.88,19.76,2.71,22.18s37.48-20.48,37.48-20.48
				s59.54,3.69,76.5,71.82v87.12H1006.3V520.17z"/>
		</g>
	</g>
	<path class="st81" d="M1006.96,491.48c0,0,2.09-5.31,9.07-7.18c6.98-1.87,15.75,1.39,14.61,10.71L1006.96,491.48z"/>
	<path class="st26" d="M1025.49,494.12h-8.44l-6.97-33.43l-0.98-4.68l-0.04-0.2l-0.82-3.9c-0.06-0.28-0.09-0.57-0.09-0.84
		c0-2.19,1.78-4.06,4.08-4.06c1.92-0.01,3.59,1.34,3.99,3.23l0.88,4.18l0.06,0.28l1.01,4.76L1025.49,494.12z"/>
	<path d="M1017.16,454.7l-8.06,1.31l-0.86-4.1c-0.06-0.28-0.09-0.57-0.09-0.84c0-2.19,1.78-4.06,4.08-4.06
		c1.92-0.01,3.59,1.34,3.99,3.23L1017.16,454.7z"/>
	<polygon class="st80" points="1018.17,459.46 1010.08,460.69 1009.1,456.01 1009.06,455.81 1017.1,454.42 1017.16,454.7 	"/>
	<path class="st76" d="M995.3,503.07c0,0,3.2-10.93,12.81-13c9.61-2.07,30.95,0.23,23.74,10.36c0,0,3.39,3.77,2.64,7.54
		c-0.75,3.77-37.68,0-37.68,0L995.3,503.07z"/>
	<polygon class="st82" points="948.24,506.66 1040.52,506.66 1077.08,625.4 984.81,625.4 	"/>
	<path class="st83" d="M961.38,510.57h63.27c0,0,0.23-4.64-2.89-5.19s-10.81-0.31-10.81-0.31l-2.12-4.17
		c-0.64-1.26-1.93-2.05-3.34-2.05h-25.77c-1.68,0-3.15,1.11-3.6,2.73l-0.89,3.13h-8.8c-1.42,0-2.71,0.82-3.31,2.11L961.38,510.57z"
		/>
	<path class="st76" d="M1047.09,544.53l24.17,33.18l47.03,33.18l5.49-30.99l61.97,2.86c0,0-17.42,75.48-34.3,82.23
		s-73.05-25.97-100.05-60.04c0,0-49.95-18.53-49.78-36.8c0,0,0.37-2.82,4.67-0.33c0,0-5.66-4.82-3.67-8.8c1.99-3.99,7.81,1,7.81,1
		s-7.49-6.81-5.81-9.96c1.68-3.16,7.31-1.18,10.13,1.73c0,0-5.15-6.88-2.66-9.37s5.48-1,8.97,3.32
		c3.49,4.32,24.25,21.42,27.07,21.59C1048.13,567.33,1035.93,541.65,1047.09,544.53z"/>
	<g>
		<path class="st78" d="M1027.9,566.53c-0.11,0-0.21-0.03-0.3-0.1c-4.79-3.61-13.66-14.98-14.03-15.46
			c-0.17-0.22-0.13-0.53,0.09-0.7c0.21-0.17,0.53-0.13,0.7,0.09c0.09,0.12,9.16,11.75,13.84,15.28c0.22,0.17,0.26,0.48,0.1,0.7
			C1028.21,566.46,1028.06,566.53,1027.9,566.53z"/>
	</g>
	<g>
		<path class="st78" d="M1023.54,573.12c-0.11,0-0.22-0.04-0.31-0.11c-4.13-3.29-12.79-12.25-13.15-12.63
			c-0.19-0.2-0.19-0.51,0.01-0.71c0.2-0.19,0.51-0.19,0.71,0.01c0.09,0.09,8.97,9.29,13.06,12.55c0.22,0.17,0.25,0.49,0.08,0.7
			C1023.83,573.05,1023.68,573.12,1023.54,573.12z"/>
	</g>
	<g>
		<path class="st78" d="M1020.94,581.54c-0.08,0-0.15-0.02-0.23-0.05c-4.86-2.46-14.38-12.88-14.78-13.32
			c-0.19-0.2-0.17-0.52,0.03-0.71c0.2-0.18,0.52-0.17,0.71,0.03c0.1,0.11,9.8,10.72,14.5,13.1c0.25,0.12,0.35,0.43,0.22,0.67
			C1021.29,581.44,1021.12,581.54,1020.94,581.54z"/>
	</g>
	<g>
		<path class="st78" d="M1031.49,500.78c-2.42-2.54-16.03-3.56-21.08-3.74l0.04-1c0.76,0.03,18.57,0.7,21.76,4.05L1031.49,500.78z"
			/>
	</g>
	<polyline class="st77" points="1118.3,610.9 1136.61,624.23 1119.52,604.02 1118.3,610.9 	"/>
	<polygon class="st84" points="1131.42,534.34 1123.79,579.91 1118.3,610.9 1107.61,603.36 	"/>
	<path class="st84" d="M1192.61,528.87l-6.84,53.9c0,0,11.99-21.99,12.74-23.7C1199.25,557.36,1192.61,528.87,1192.61,528.87z"/>
</g>
</svg>
